<svg xmlns="http://www.w3.org/2000/svg" xmlns:xlink="http://www.w3.org/1999/xlink" width="318.839" height="75.79" viewBox="0 0 318.839 75.79">
  <defs>
    <clipPath id="clip-path">
      <rect id="Rectangle_2" data-name="Rectangle 2" width="315.839" height="75.79" fill="none"/>
    </clipPath>
  </defs>
  <g id="Group_1" data-name="Group 1" clip-path="url(#clip-path)">
    <path id="Path_1" data-name="Path 1" d="M8.924,50.4h0A8.923,8.923,0,0,1,0,41.475V15.634a8.924,8.924,0,1,1,17.849,0V41.475A8.923,8.923,0,0,1,8.924,50.4" transform="translate(0 9.34)" fill="#fff"/>
    <path id="Path_2" data-name="Path 2" d="M17.791,68.8h0a8.923,8.923,0,0,1-8.924-8.924V10.77a8.924,8.924,0,1,1,17.849,0V59.878A8.923,8.923,0,0,1,17.791,68.8" transform="translate(12.343 2.57)" fill="#fff"/>
    <path id="Path_3" data-name="Path 3" d="M87.039,19.851a8.89,8.89,0,0,1-15.852,5.535,20.11,20.11,0,1,0-.172,25.233A8.89,8.89,0,1,1,84.772,61.885a37.894,37.894,0,1,1,.34-47.557,8.86,8.86,0,0,1,1.928,5.523" transform="translate(24.422 0)" fill="#fff"/>
    <path id="Path_4" data-name="Path 4" d="M87.746,42.973a3.016,3.016,0,0,1-2.27.966h-.45a3.082,3.082,0,0,1-2.225-.945,3.029,3.029,0,0,1-.969-2.246V28.743H64.795V40.749A3.227,3.227,0,0,1,61.6,43.94h-.45a3.091,3.091,0,0,1-2.227-.945,3.035,3.035,0,0,1-.966-2.246V11.66a2.83,2.83,0,0,1,.27-1.237,3.916,3.916,0,0,1,.7-1.009,2.962,2.962,0,0,1,1.012-.7,3.083,3.083,0,0,1,1.215-.246h.45a3.227,3.227,0,0,1,3.191,3.191v10.3H81.833V11.66a2.83,2.83,0,0,1,.27-1.237,3.866,3.866,0,0,1,.7-1.009,2.929,2.929,0,0,1,1.009-.7,3.083,3.083,0,0,1,1.215-.246h.45a3.016,3.016,0,0,1,2.27.966,3.133,3.133,0,0,1,.921,2.225V40.749a3.125,3.125,0,0,1-.921,2.225" transform="translate(80.681 11.789)" fill="#fff"/>
    <path id="Path_5" data-name="Path 5" d="M85.889,45.065h-.45a3.794,3.794,0,0,1-2.722-1.146,3.729,3.729,0,0,1-1.182-2.756V29.871H65.921V41.164a3.937,3.937,0,0,1-3.9,3.9h-.45a3.79,3.79,0,0,1-2.722-1.146,3.729,3.729,0,0,1-1.182-2.756V12.075A3.545,3.545,0,0,1,58,10.532a4.637,4.637,0,0,1,.823-1.194,3.7,3.7,0,0,1,1.249-.864,3.837,3.837,0,0,1,1.493-.3h.45a3.937,3.937,0,0,1,3.9,3.9v9.585H81.536V12.075a3.537,3.537,0,0,1,.34-1.543A4.678,4.678,0,0,1,82.7,9.338a3.71,3.71,0,0,1,1.251-.864,3.817,3.817,0,0,1,1.49-.3h.45A3.709,3.709,0,0,1,88.674,9.36a3.842,3.842,0,0,1,1.119,2.715V41.164a3.833,3.833,0,0,1-1.119,2.715,3.715,3.715,0,0,1-2.784,1.186M64.5,28.448H82.959V41.164A2.338,2.338,0,0,0,83.71,42.9a2.4,2.4,0,0,0,1.729.742h.45a2.311,2.311,0,0,0,1.756-.746,2.423,2.423,0,0,0,.725-1.734V12.075a2.423,2.423,0,0,0-.725-1.734,2.308,2.308,0,0,0-1.756-.746h-.45a2.366,2.366,0,0,0-.938.191,2.264,2.264,0,0,0-.773.531,3.268,3.268,0,0,0-.572.83,2.1,2.1,0,0,0-.2.928V23.083H64.5V12.075a2.516,2.516,0,0,0-2.48-2.48h-.45a2.357,2.357,0,0,0-.938.191,2.241,2.241,0,0,0-.773.531,3.268,3.268,0,0,0-.572.83,2.1,2.1,0,0,0-.2.928V41.164a2.338,2.338,0,0,0,.751,1.739,2.4,2.4,0,0,0,1.729.742h.45a2.516,2.516,0,0,0,2.48-2.48Z" transform="translate(80.267 11.374)" fill="#fff"/>
    <path id="Path_6" data-name="Path 6" d="M101.418,11.886a3.22,3.22,0,0,1-.2,1.1,3.517,3.517,0,0,1-.471.921L90,28.7V40.747a2.948,2.948,0,0,1-.983,2.315,3.2,3.2,0,0,1-2.189.878h-.4a3.179,3.179,0,0,1-2.21-.878,2.977,2.977,0,0,1-.959-2.315V28.61L72.736,13.864a4.444,4.444,0,0,1-.45-.875,2.962,2.962,0,0,1-.179-1.057,3.514,3.514,0,0,1,.942-2.406A3.013,3.013,0,0,1,75.389,8.47a3.358,3.358,0,0,1,1.55.38A3.29,3.29,0,0,1,78.13,9.862l8.563,12.005L95.17,9.908A3.507,3.507,0,0,1,96.4,8.85a3.36,3.36,0,0,1,1.552-.38,3.046,3.046,0,0,1,1.3.292,3.805,3.805,0,0,1,1.1.763,3.949,3.949,0,0,1,.765,1.079,2.941,2.941,0,0,1,.292,1.282" transform="translate(100.372 11.79)" fill="#fff"/>
    <path id="Path_7" data-name="Path 7" d="M87.242,45.065h-.4A3.884,3.884,0,0,1,84.149,44a3.685,3.685,0,0,1-1.191-2.839V29.252L72.57,14.692a5.211,5.211,0,0,1-.536-1.038,3.638,3.638,0,0,1-.225-1.308,4.224,4.224,0,0,1,1.124-2.88A3.707,3.707,0,0,1,75.8,8.171a4.056,4.056,0,0,1,1.875.462,3.987,3.987,0,0,1,1.445,1.229l7.984,11.192L95,9.91a4.252,4.252,0,0,1,1.49-1.277,3.932,3.932,0,0,1,3.48-.1,4.576,4.576,0,0,1,1.306.907,4.728,4.728,0,0,1,.9,1.273,3.636,3.636,0,0,1,.364,1.591,3.949,3.949,0,0,1-.246,1.342,4.174,4.174,0,0,1-.572,1.107l-10.6,14.6V41.164a3.65,3.65,0,0,1-1.22,2.844,3.907,3.907,0,0,1-2.662,1.057M75.8,9.594a2.31,2.31,0,0,0-1.808.82,2.8,2.8,0,0,0-.763,1.93,2.255,2.255,0,0,0,.134.8,3.789,3.789,0,0,0,.376.734L84.379,28.8V41.164a2.285,2.285,0,0,0,.73,1.789,2.476,2.476,0,0,0,1.732.691h.4a2.5,2.5,0,0,0,1.715-.7,2.26,2.26,0,0,0,.744-1.784V28.883L100.582,13.9a2.8,2.8,0,0,0,.378-.744,2.574,2.574,0,0,0,.16-.861,2.182,2.182,0,0,0-.222-.974,3.249,3.249,0,0,0-.627-.885,3.2,3.2,0,0,0-.9-.622,2.475,2.475,0,0,0-2.229.079,2.758,2.758,0,0,0-.988.844L87.108,23.508,77.964,10.69a2.546,2.546,0,0,0-.938-.792,2.622,2.622,0,0,0-1.225-.3" transform="translate(99.957 11.374)" fill="#fff"/>
    <path id="Path_8" data-name="Path 8" d="M115.078,40.524a3.138,3.138,0,0,1-.27,1.282,3.546,3.546,0,0,1-.742,1.079,3.9,3.9,0,0,1-1.079.763,2.9,2.9,0,0,1-1.282.292,3.712,3.712,0,0,1-3.057-1.753l-8.9-15.734q-1.844,1.934-3.6,3.8T92.51,34.14v6.609a2.941,2.941,0,0,1-.99,2.315,3.238,3.238,0,0,1-2.2.875h-.45a3.247,3.247,0,0,1-2.2-.875,2.947,2.947,0,0,1-.988-2.315V11.662a2.947,2.947,0,0,1,.988-2.315,3.239,3.239,0,0,1,2.2-.878h.45a3.23,3.23,0,0,1,2.2.878,2.941,2.941,0,0,1,.99,2.315V24.34q3.416-3.688,6.834-7.4t6.877-7.351a3.926,3.926,0,0,1,1.124-.765,3.19,3.19,0,0,1,1.349-.313,3.082,3.082,0,0,1,1.3.292,3.857,3.857,0,0,1,1.1.765,3.767,3.767,0,0,1,.763,1.122,3.238,3.238,0,0,1,.292,1.328,3.174,3.174,0,0,1-.942,2.337l-6.654,6.97q2.519,4.449,5.035,8.767t4.99,8.721a3.552,3.552,0,0,1,.5,1.708" transform="translate(119.259 11.789)" fill="#fff"/>
    <path id="Path_9" data-name="Path 9" d="M112.12,45.066a4.432,4.432,0,0,1-3.669-2.1l-8.437-14.909q-1.5,1.572-2.93,3.1-1.665,1.769-3.449,3.681v6.329a3.636,3.636,0,0,1-1.229,2.846,3.942,3.942,0,0,1-2.674,1.057h-.45a3.942,3.942,0,0,1-2.674-1.057,3.636,3.636,0,0,1-1.229-2.846V12.076a3.641,3.641,0,0,1,1.229-2.849,3.94,3.94,0,0,1,2.674-1.055h.45a3.94,3.94,0,0,1,2.674,1.055,3.644,3.644,0,0,1,1.229,2.849V22.938q2.8-3.021,5.6-6.061c2.263-2.459,4.581-4.935,6.887-7.36a4.669,4.669,0,0,1,1.337-.919,3.782,3.782,0,0,1,3.253-.024,4.625,4.625,0,0,1,1.306.907,4.436,4.436,0,0,1,.909,1.337,3.953,3.953,0,0,1,.354,1.617,3.87,3.87,0,0,1-1.153,2.839l-6.277,6.576c1.593,2.811,3.2,5.6,4.77,8.3,1.674,2.868,3.356,5.805,5,8.731a4.285,4.285,0,0,1,.586,2.057,3.862,3.862,0,0,1-.33,1.569,4.3,4.3,0,0,1-.89,1.294,4.626,4.626,0,0,1-1.273.9,3.636,3.636,0,0,1-1.591.364M100.309,25.681l9.374,16.569a2.762,2.762,0,0,0,1.041.993,2.464,2.464,0,0,0,2.37.177,3.2,3.2,0,0,0,.885-.627,2.853,2.853,0,0,0,.593-.864,2.384,2.384,0,0,0,.208-.993,2.873,2.873,0,0,0-.407-1.366c-1.634-2.913-3.311-5.844-4.98-8.707s-3.361-5.8-5.04-8.774l-.261-.459,7.018-7.351a2.572,2.572,0,0,0,.517-2.882,3.017,3.017,0,0,0-.617-.911,3.081,3.081,0,0,0-.9-.622,2.319,2.319,0,0,0-2.052.022,3.253,3.253,0,0,0-.921.622c-2.287,2.406-4.6,4.877-6.858,7.329q-3.419,3.71-6.834,7.4l-1.234,1.33V12.076a2.245,2.245,0,0,0-.749-1.784,2.538,2.538,0,0,0-1.732-.7h-.45a2.542,2.542,0,0,0-1.732.7,2.245,2.245,0,0,0-.749,1.784V41.162a2.237,2.237,0,0,0,.749,1.782,2.527,2.527,0,0,0,1.732.7h.45a2.527,2.527,0,0,0,1.732-.7,2.24,2.24,0,0,0,.749-1.782V34.273l.191-.206q1.891-2.024,3.643-3.889t3.6-3.8Z" transform="translate(118.845 11.375)" fill="#fff"/>
    <path id="Path_10" data-name="Path 10" d="M127.718,40.217a3.485,3.485,0,0,1-1.033,2.337,3.175,3.175,0,0,1-2.382,1.036H109.465a11.8,11.8,0,0,1-3.971-.675,9.943,9.943,0,0,1-3.356-1.978A9.575,9.575,0,0,1,99.816,37.7a10.833,10.833,0,0,1-.871-4.495,7.717,7.717,0,0,1,.316-2.225,9.794,9.794,0,0,1,.808-1.957,10.8,10.8,0,0,1,1.1-1.641c.4-.5.785-.935,1.146-1.325-.361-.39-.742-.84-1.146-1.349a11.679,11.679,0,0,1-1.1-1.665,9.772,9.772,0,0,1-.808-1.954,7.745,7.745,0,0,1-.316-2.227,10.84,10.84,0,0,1,.871-4.495,9.611,9.611,0,0,1,5.679-5.26,11.8,11.8,0,0,1,3.971-.675H124.3a3.082,3.082,0,0,1,1.3.292,3.557,3.557,0,0,1,1.079.765,4.176,4.176,0,0,1,.742,1.079,2.832,2.832,0,0,1,.292,1.237,2.777,2.777,0,0,1-.246,1.325,3.741,3.741,0,0,1-.765,1.124,3.806,3.806,0,0,1-1.1.763,3.049,3.049,0,0,1-1.3.294H109.465a3.728,3.728,0,0,0-1.641.337,3.979,3.979,0,0,0-1.167.83,3.382,3.382,0,0,0-.72,1.146,3.2,3.2,0,0,0,0,2.473,3.888,3.888,0,0,0,1.887,2.091,3.51,3.51,0,0,0,1.641.361H121.7a3.9,3.9,0,0,1,1.572.292,3.415,3.415,0,0,1,1.866,1.911,3.527,3.527,0,0,1,.249,1.3,3.431,3.431,0,0,1-3.686,3.416h-12.23a3.539,3.539,0,0,0-1.641.359,3.949,3.949,0,0,0-1.167.9,3.838,3.838,0,0,0-.72,1.215,3.666,3.666,0,0,0-.249,1.258,3.3,3.3,0,0,0,.249,1.213,3.668,3.668,0,0,0,.72,1.148,3.791,3.791,0,0,0,1.167.854,3.728,3.728,0,0,0,1.641.337H124.3a3.082,3.082,0,0,1,1.3.292,3.768,3.768,0,0,1,1.866,1.866,2.662,2.662,0,0,1,.246,1.3" transform="translate(137.73 11.737)" fill="#fff"/>
    <path id="Path_11" data-name="Path 11" d="M124.713,44.715H109.878a12.593,12.593,0,0,1-4.21-.715,10.746,10.746,0,0,1-3.593-2.119A10.277,10.277,0,0,1,99.581,38.4a11.593,11.593,0,0,1-.933-4.786,8.437,8.437,0,0,1,.344-2.428,10.585,10.585,0,0,1,.866-2.1,11.5,11.5,0,0,1,1.174-1.749c.254-.311.5-.605.744-.878-.244-.28-.493-.581-.751-.907A12.511,12.511,0,0,1,99.858,23.8a10.585,10.585,0,0,1-.866-2.1,8.437,8.437,0,0,1-.344-2.428,11.593,11.593,0,0,1,.933-4.786,10.336,10.336,0,0,1,6.088-5.64,12.593,12.593,0,0,1,4.21-.715h14.835a3.791,3.791,0,0,1,1.6.359,4.283,4.283,0,0,1,1.3.919,4.921,4.921,0,0,1,.866,1.261,3.543,3.543,0,0,1,.364,1.545,3.406,3.406,0,0,1-.309,1.617,4.41,4.41,0,0,1-2.217,2.244,3.783,3.783,0,0,1-1.6.359H109.878a3.049,3.049,0,0,0-1.332.266,3.363,3.363,0,0,0-.964.682,2.711,2.711,0,0,0-.567.909,2.79,2.79,0,0,0-.2.983,2.827,2.827,0,0,0,.2.983,3.184,3.184,0,0,0,.591.976,3.251,3.251,0,0,0,.959.737,2.85,2.85,0,0,0,1.316.28h12.228a4.629,4.629,0,0,1,1.856.352,4.146,4.146,0,0,1,2.246,2.3,4.3,4.3,0,0,1,.3,1.564,4.142,4.142,0,0,1-4.4,4.129H109.878a2.881,2.881,0,0,0-1.316.28,3.22,3.22,0,0,0-.959.737,3.075,3.075,0,0,0-.586.99,2.954,2.954,0,0,0-.206,1.014,2.6,2.6,0,0,0,.2.952,2.974,2.974,0,0,0,.584.928,2.952,2.952,0,0,0,2.284.959h14.835a3.791,3.791,0,0,1,1.6.359,4.482,4.482,0,0,1,2.213,2.21,3.406,3.406,0,0,1,.313,1.641,4.2,4.2,0,0,1-1.232,2.794,3.883,3.883,0,0,1-2.9,1.253M109.878,9.557a11.131,11.131,0,0,0-3.734.634,9.046,9.046,0,0,0-3.114,1.856,9.158,9.158,0,0,0-2.153,3.026,10.2,10.2,0,0,0-.809,4.2,7.056,7.056,0,0,0,.285,2.021,9.316,9.316,0,0,0,.751,1.818,11.437,11.437,0,0,0,1.036,1.564c.392.493.765.933,1.112,1.308l.445.481-.445.483c-.349.378-.725.813-1.119,1.294a10.322,10.322,0,0,0-1.029,1.533,9.355,9.355,0,0,0-.751,1.816,7.1,7.1,0,0,0-.285,2.024,10.2,10.2,0,0,0,.809,4.2,8.867,8.867,0,0,0,2.148,3,9.243,9.243,0,0,0,3.119,1.837,11.131,11.131,0,0,0,3.734.634h14.835a2.475,2.475,0,0,0,1.871-.813,2.777,2.777,0,0,0,.837-1.873v-.022a1.934,1.934,0,0,0-.182-.957,3.047,3.047,0,0,0-1.521-1.521,2.356,2.356,0,0,0-1-.225H109.878a4.451,4.451,0,0,1-1.949-.409,4.515,4.515,0,0,1-1.385-1.014,4.39,4.39,0,0,1-.856-1.366,4.036,4.036,0,0,1-.3-1.473,4.422,4.422,0,0,1,.289-1.5,4.546,4.546,0,0,1,.854-1.438,4.649,4.649,0,0,1,1.378-1.062,4.237,4.237,0,0,1,1.966-.438h12.228a2.8,2.8,0,0,0,2.213-.82,2.739,2.739,0,0,0,.763-1.887,2.8,2.8,0,0,0-.2-1.043,2.707,2.707,0,0,0-.572-.895,2.853,2.853,0,0,0-.914-.624,3.289,3.289,0,0,0-1.292-.232H109.878a4.248,4.248,0,0,1-1.969-.44,4.6,4.6,0,0,1-2.227-2.471,3.924,3.924,0,0,1,0-2.976,4.074,4.074,0,0,1,.868-1.385,4.69,4.69,0,0,1,1.375-.981,4.418,4.418,0,0,1,1.949-.409h14.835a2.348,2.348,0,0,0,1-.225,3.152,3.152,0,0,0,.9-.624,3.018,3.018,0,0,0,.617-.911,2.034,2.034,0,0,0,.187-.988,2.205,2.205,0,0,0-.222-.976,3.581,3.581,0,0,0-.617-.9,2.812,2.812,0,0,0-.864-.61,2.356,2.356,0,0,0-1-.225Z" transform="translate(137.316 11.322)" fill="#fff"/>
    <path id="Path_12" data-name="Path 12" d="M145.572,42.877a3.2,3.2,0,0,1-2.344,1.012,3.307,3.307,0,0,1-2.411-.966,3.241,3.241,0,0,1-.983-2.406V23.658q-1.851,3.236-3.612,6.384T132.7,36.426a3.536,3.536,0,0,1-3.026,1.708,3.332,3.332,0,0,1-1.737-.471,3.729,3.729,0,0,1-1.287-1.282l-7.135-12.768v16.9a3.407,3.407,0,0,1-5.784,2.406,3.278,3.278,0,0,1-.962-2.406V11.968a3.339,3.339,0,0,1,1.012-2.449,3.236,3.236,0,0,1,2.361-1.012h.945a3.337,3.337,0,0,1,1.729.5,3.438,3.438,0,0,1,1.282,1.3q2.382,4.273,4.765,8.676t4.81,8.858l9.577-17.533A3.479,3.479,0,0,1,140.508,9a3.214,3.214,0,0,1,1.708-.5h.945a2.923,2.923,0,0,1,1.28.292,3.924,3.924,0,0,1,1.081.765,3.853,3.853,0,0,1,.763,1.1,3.082,3.082,0,0,1,.292,1.3V40.516a3.247,3.247,0,0,1-1,2.361" transform="translate(156.971 11.842)" fill="#fff"/>
    <path id="Path_13" data-name="Path 13" d="M143.642,45.013a4.014,4.014,0,0,1-2.911-1.17,3.937,3.937,0,0,1-1.2-2.913V26.755c-.765,1.351-1.528,2.705-2.28,4.047-1.158,2.069-2.342,4.215-3.519,6.377a4.244,4.244,0,0,1-3.65,2.079,4.041,4.041,0,0,1-2.1-.572,4.471,4.471,0,0,1-1.528-1.521l-5.817-10.408V40.93a4.083,4.083,0,1,1-8.166,0V12.382a4.032,4.032,0,0,1,1.22-2.952,3.929,3.929,0,0,1,2.863-1.22h.942a4.058,4.058,0,0,1,2.1.593,4.2,4.2,0,0,1,1.54,1.569c1.579,2.837,3.184,5.757,4.767,8.685q2.077,3.839,4.186,7.709l8.951-16.387a4.233,4.233,0,0,1,1.512-1.572,3.955,3.955,0,0,1,2.081-.6h.945a3.649,3.649,0,0,1,1.588.361,4.712,4.712,0,0,1,1.275.9,4.525,4.525,0,0,1,.9,1.3,3.771,3.771,0,0,1,.359,1.6V40.93a4.156,4.156,0,0,1-4.059,4.083M140.958,21.4V40.93a2.53,2.53,0,0,0,.77,1.9,2.6,2.6,0,0,0,1.914.763,2.5,2.5,0,0,0,1.839-.8,2.534,2.534,0,0,0,.8-1.859V12.382a2.34,2.34,0,0,0-.227-1,3.149,3.149,0,0,0-.622-.9,3.228,3.228,0,0,0-.885-.627,2.2,2.2,0,0,0-.971-.222h-.945a2.5,2.5,0,0,0-1.337.392,2.77,2.77,0,0,0-1.009,1.041l-10.2,18.672-.624-1.143q-2.429-4.449-4.813-8.858c-1.579-2.923-3.181-5.839-4.76-8.669a2.721,2.721,0,0,0-1.024-1.041,2.623,2.623,0,0,0-1.368-.395h-.942a2.53,2.53,0,0,0-1.859.8,2.632,2.632,0,0,0-.8,1.947V40.93a2.565,2.565,0,0,0,.753,1.9,2.708,2.708,0,0,0,4.569-1.9V21.3l8.468,15.151a2.982,2.982,0,0,0,1.031,1.019,2.616,2.616,0,0,0,1.373.371,2.832,2.832,0,0,0,2.414-1.359c1.167-2.146,2.354-4.3,3.514-6.37,1.186-2.119,2.4-4.27,3.617-6.391Z" transform="translate(156.559 11.428)" fill="#fff"/>
    <path id="Path_14" data-name="Path 14" d="M131.5,11V7.929h-.966V7.324h2.629v.605H132.2V11Z" transform="translate(181.707 10.195)" fill="#fff"/>
    <path id="Path_15" data-name="Path 15" d="M131.851,11V7.324h.99l.531,1.782c.05.16.091.318.124.471a4.452,4.452,0,0,1,.077.445c.031-.136.065-.275.1-.421s.084-.3.136-.483l.541-1.794h.952V11h-.593V7.915c-.031.136-.065.273-.1.407s-.077.27-.117.407l-.67,2.27h-.507l-.651-2.27c-.069-.239-.117-.411-.146-.521s-.053-.206-.072-.292V11Z" transform="translate(183.534 10.195)" fill="#fff"/>
  </g>
</svg>
